<svg width="79" height="49" viewBox="0 0 79 49" fill="none" xmlns="http://www.w3.org/2000/svg">
<path d="M24.976 29.812C25.2187 29.812 25.4053 29.9333 25.536 30.176C25.6853 30.4 25.76 30.6893 25.76 31.044C25.76 31.4733 25.6947 31.8093 25.564 32.052C25.4333 32.2947 25.228 32.5093 24.948 32.696C23.8467 33.424 22.092 34.6187 19.684 36.28C18.956 40.144 18.0133 43.1867 16.856 45.408C15.6987 47.6293 14.2333 48.74 12.46 48.74C11.508 48.74 10.7333 48.4413 10.136 47.844C9.53867 47.2653 9.24 46.5 9.24 45.548C9.24 44.6707 9.436 43.784 9.828 42.888C10.22 41.992 10.948 40.956 12.012 39.78C13.0947 38.604 14.616 37.26 16.576 35.748L16.66 35.216C15.1853 35.832 13.7387 36.14 12.32 36.14C10.2293 36.14 8.39067 35.7387 6.804 34.936C5.21733 34.1147 3.98533 32.9573 3.108 31.464C2.23067 29.9707 1.792 28.2347 1.792 26.256C1.792 23.4933 2.31467 21.0573 3.36 18.948C4.40533 16.82 5.84267 15.1773 7.672 14.02C9.52 12.844 11.5827 12.256 13.86 12.256C16.044 12.256 17.6773 12.7693 18.76 13.796C19.8613 14.804 20.412 16.148 20.412 17.828C20.412 18.9293 20.2067 19.816 19.796 20.488C19.404 21.1413 18.8347 21.468 18.088 21.468C17.584 21.468 17.1733 21.3467 16.856 21.104C16.5573 20.8613 16.408 20.5253 16.408 20.096C16.408 19.9093 16.4453 19.592 16.52 19.144C16.632 18.6213 16.688 18.2107 16.688 17.912C16.688 17.128 16.4453 16.5213 15.96 16.092C15.4933 15.6627 14.7 15.448 13.58 15.448C12.2173 15.448 10.948 15.84 9.772 16.624C8.61467 17.408 7.68133 18.584 6.972 20.152C6.26267 21.7013 5.908 23.568 5.908 25.752C5.908 27.992 6.51467 29.728 7.728 30.96C8.96 32.1733 10.7333 32.78 13.048 32.78C14.336 32.78 15.68 32.4907 17.08 31.912L17.472 28.496H14.616C14.0933 28.496 13.692 28.3747 13.412 28.132C13.132 27.8707 12.992 27.4507 12.992 26.872C12.992 26.3493 13.132 25.9387 13.412 25.64C13.692 25.3413 14.0653 25.192 14.532 25.192H19.768C20.1787 25.192 20.5147 25.332 20.776 25.612C21.056 25.8733 21.168 26.256 21.112 26.76C21.056 27.3573 20.8693 28.7107 20.552 30.82L20.244 32.948C21.7373 31.828 23.1 30.8573 24.332 30.036C24.5747 29.8867 24.7893 29.812 24.976 29.812ZM12.768 46.024C13.2533 46.024 13.7853 45.4733 14.364 44.372C14.9427 43.2707 15.484 41.4973 15.988 39.052C14.5693 40.2653 13.5427 41.3573 12.908 42.328C12.292 43.3173 11.984 44.1853 11.984 44.932C11.984 45.66 12.2453 46.024 12.768 46.024ZM37.6473 12.424C38.1326 12.424 38.5433 12.5453 38.8793 12.788C39.2153 13.012 39.3833 13.292 39.3833 13.628C39.3833 14.2253 39.1966 14.7107 38.8233 15.084C38.45 15.4387 37.918 15.616 37.2273 15.616C36.1446 15.616 35.3233 15.6253 34.7633 15.644C34.726 15.868 34.558 16.876 34.2593 18.668C33.9233 20.6653 33.718 21.888 33.6433 22.336L33.0553 26.004C32.6446 28.748 32.318 31.044 32.0753 32.892C32.4673 32.8733 32.9993 32.864 33.6713 32.864C34.6606 32.864 35.3326 32.9947 35.6873 33.256C36.042 33.5173 36.2193 33.9093 36.2193 34.432C36.2193 34.9173 36.0233 35.328 35.6313 35.664C35.258 36 34.726 36.168 34.0353 36.168C33.5686 36.168 32.8313 36.1493 31.8233 36.112C30.89 36.0747 30.274 36.056 29.9753 36.056C28.7993 36.056 27.5113 36.1587 26.1113 36.364C25.4953 36.4573 25.0566 36.504 24.7953 36.504C24.3846 36.504 24.0393 36.392 23.7593 36.168C23.4793 35.944 23.3393 35.6173 23.3393 35.188C23.3393 34.516 23.638 33.9933 24.2353 33.62C24.8326 33.2467 25.6726 33.0507 26.7553 33.032L28.0713 33.004L28.1553 32.388C28.6033 29.4013 28.93 27.292 29.1353 26.06L29.7513 22.392C30.1246 20.2267 30.4606 17.996 30.7593 15.7L28.4073 15.728C27.7353 15.728 27.2686 15.6253 27.0073 15.42C26.7646 15.196 26.6433 14.888 26.6433 14.496C26.6433 13.2267 27.558 12.5453 29.3873 12.452C30.246 12.4147 31.2913 12.396 32.5233 12.396L37.6473 12.424ZM63.7746 29.812C64.0173 29.812 64.2039 29.9333 64.3346 30.176C64.4839 30.4 64.5586 30.6893 64.5586 31.044C64.5586 31.4733 64.4933 31.8093 64.3626 32.052C64.2319 32.2947 64.0266 32.5093 63.7466 32.696C62.6453 33.424 60.8906 34.6187 58.4826 36.28C57.7546 40.144 56.8119 43.1867 55.6546 45.408C54.4973 47.6293 53.0319 48.74 51.2586 48.74C50.3066 48.74 49.5319 48.4413 48.9346 47.844C48.3373 47.2653 48.0386 46.5 48.0386 45.548C48.0386 44.6707 48.2346 43.784 48.6266 42.888C49.0186 41.992 49.7466 40.956 50.8106 39.78C51.8933 38.604 53.4146 37.26 55.3746 35.748L55.4586 35.216C53.9839 35.832 52.5373 36.14 51.1186 36.14C49.0279 36.14 47.1893 35.7387 45.6026 34.936C44.0159 34.1147 42.7839 32.9573 41.9066 31.464C41.0293 29.9707 40.5906 28.2347 40.5906 26.256C40.5906 23.4933 41.1133 21.0573 42.1586 18.948C43.2039 16.82 44.6413 15.1773 46.4706 14.02C48.3186 12.844 50.3813 12.256 52.6586 12.256C54.8426 12.256 56.4759 12.7693 57.5586 13.796C58.6599 14.804 59.2106 16.148 59.2106 17.828C59.2106 18.9293 59.0053 19.816 58.5946 20.488C58.2026 21.1413 57.6333 21.468 56.8866 21.468C56.3826 21.468 55.9719 21.3467 55.6546 21.104C55.3559 20.8613 55.2066 20.5253 55.2066 20.096C55.2066 19.9093 55.2439 19.592 55.3186 19.144C55.4306 18.6213 55.4866 18.2107 55.4866 17.912C55.4866 17.128 55.2439 16.5213 54.7586 16.092C54.2919 15.6627 53.4986 15.448 52.3786 15.448C51.0159 15.448 49.7466 15.84 48.5706 16.624C47.4133 17.408 46.4799 18.584 45.7706 20.152C45.0613 21.7013 44.7066 23.568 44.7066 25.752C44.7066 27.992 45.3133 29.728 46.5266 30.96C47.7586 32.1733 49.5319 32.78 51.8466 32.78C53.1346 32.78 54.4786 32.4907 55.8786 31.912L56.2706 28.496H53.4146C52.8919 28.496 52.4906 28.3747 52.2106 28.132C51.9306 27.8707 51.7906 27.4507 51.7906 26.872C51.7906 26.3493 51.9306 25.9387 52.2106 25.64C52.4906 25.3413 52.8639 25.192 53.3306 25.192H58.5666C58.9773 25.192 59.3133 25.332 59.5746 25.612C59.8546 25.8733 59.9666 26.256 59.9106 26.76C59.8546 27.3573 59.6679 28.7107 59.3506 30.82L59.0426 32.948C60.5359 31.828 61.8986 30.8573 63.1306 30.036C63.3733 29.8867 63.5879 29.812 63.7746 29.812ZM51.5666 46.024C52.0519 46.024 52.5839 45.4733 53.1626 44.372C53.7413 43.2707 54.2826 41.4973 54.7866 39.052C53.3679 40.2653 52.3413 41.3573 51.7066 42.328C51.0906 43.3173 50.7826 44.1853 50.7826 44.932C50.7826 45.66 51.0439 46.024 51.5666 46.024ZM76.4459 12.424C76.9312 12.424 77.3419 12.5453 77.6779 12.788C78.0139 13.012 78.1819 13.292 78.1819 13.628C78.1819 14.2253 77.9952 14.7107 77.6219 15.084C77.2486 15.4387 76.7166 15.616 76.0259 15.616C74.9432 15.616 74.1219 15.6253 73.5619 15.644C73.5246 15.868 73.3566 16.876 73.0579 18.668C72.7219 20.6653 72.5166 21.888 72.4419 22.336L71.8539 26.004C71.4432 28.748 71.1166 31.044 70.8739 32.892C71.2659 32.8733 71.7979 32.864 72.4699 32.864C73.4592 32.864 74.1312 32.9947 74.4859 33.256C74.8406 33.5173 75.0179 33.9093 75.0179 34.432C75.0179 34.9173 74.8219 35.328 74.4299 35.664C74.0566 36 73.5246 36.168 72.8339 36.168C72.3672 36.168 71.6299 36.1493 70.6219 36.112C69.6886 36.0747 69.0726 36.056 68.7739 36.056C67.5979 36.056 66.3099 36.1587 64.9099 36.364C64.2939 36.4573 63.8552 36.504 63.5939 36.504C63.1832 36.504 62.8379 36.392 62.5579 36.168C62.2779 35.944 62.1379 35.6173 62.1379 35.188C62.1379 34.516 62.4366 33.9933 63.0339 33.62C63.6312 33.2467 64.4712 33.0507 65.5539 33.032L66.8699 33.004L66.9539 32.388C67.4019 29.4013 67.7286 27.292 67.9339 26.06L68.5499 22.392C68.9232 20.2267 69.2592 17.996 69.5579 15.7L67.2059 15.728C66.5339 15.728 66.0672 15.6253 65.8059 15.42C65.5632 15.196 65.4419 14.888 65.4419 14.496C65.4419 13.2267 66.3566 12.5453 68.1859 12.452C69.0446 12.4147 70.0899 12.396 71.3219 12.396L76.4459 12.424Z" fill="#1F1F1F"/>
</svg>
