<svg width="64" height="64" viewBox="0 0 64 64" fill="none" xmlns="http://www.w3.org/2000/svg">
<path d="M26 17.7598V21.1398H63.965C63.912 20.0498 63.798 18.6718 63.39 17.7598" fill="#EC1C24"/>
<path d="M61.6 14.3799H26V17.7599H63.39C62.984 16.4989 62.38 15.3489 61.6 14.3799Z" fill="#E6E7E8"/>
<path d="M54 11H26V14.38H61.6C59.931 12.29 57.184 11 54 11Z" fill="#EC1C24"/>
<path d="M63.965 21.1396H26V24.5196H64V22.2666C64 22.0656 63.987 21.8696 63.981 21.6726C63.977 21.6186 63.971 21.4796 63.965 21.1396Z" fill="#E6E7E8"/>
<path d="M26 27.8995H64V24.5195H26V27.8995Z" fill="#EC1C24"/>
<path d="M26 31.2804H64V27.9004H26V31.2804Z" fill="#E6E7E8"/>
<path d="M26 31.2803H64V34.6603H26V31.2803Z" fill="#EC1C24"/>
<path d="M0 34.6602V38.0402H64V34.6602H26H0Z" fill="#E6E7E8"/>
<path d="M0 38.04H64V41.42H0V38.04Z" fill="#EC1C24"/>
<path d="M0.005 43.4989C0.005 43.4989 -0.004 44.3179 0.02 44.7999H63.98C64.008 44.3059 63.995 43.4989 63.995 43.4989L64 41.4199H0L0.005 43.4989Z" fill="#E6E7E8"/>
<path d="M10.0001 54.9996H54.0001C57.1931 54.9996 59.8471 53.8396 61.6601 51.5596H2.33008C4.20208 53.8896 6.90608 54.9996 9.99508 54.9996" fill="#EC1C24"/>
<path d="M2.33498 51.5597H61.665C62.4559 50.5547 63.0466 49.4073 63.405 48.1797H0.60498C0.970077 49.4036 1.55829 50.5496 2.33998 51.5597" fill="#E6E7E8"/>
<path d="M0.60002 48.1798H63.4C63.7275 47.0803 63.9222 45.9456 63.98 44.7998H0.0200195C0.11902 45.9558 0.21102 46.8288 0.60002 48.1798Z" fill="#EC1C24"/>
<path d="M26 11H10C3.373 11 0 15.925 0 22V34.66H26V11Z" fill="#176496"/>
<path d="M2.79806 16.9758L3.34206 16.5578L3.88506 16.9758L3.67406 16.3038L4.21506 15.8928H3.54706L3.34006 15.2178L3.13406 15.8928H2.46706L3.01006 16.3038L2.79806 16.9758ZM6.39206 16.9758L6.93606 16.5578L7.47906 16.9758L7.26906 16.3038L7.80906 15.8928H7.14206L6.93506 15.2178L6.72906 15.8928H6.06006L6.60306 16.3038L6.39206 16.9758ZM10.3571 16.9758L10.9001 16.5578L11.4441 16.9758L11.2331 16.3038L11.7731 15.8928H11.1101L10.9001 15.2178L10.6931 15.8928H10.0301L10.5671 16.3038L10.3571 16.9758ZM14.2931 16.9758L14.8361 16.5578L15.3801 16.9758L15.1701 16.3038L15.7101 15.8928H15.0401L14.8361 15.2178L14.6301 15.8928H13.9621L14.5041 16.3038L14.2931 16.9758ZM18.2431 16.9758L18.7871 16.5578L19.3301 16.9758L19.1201 16.3038L19.6611 15.8928H18.9921L18.7861 15.2178L18.5801 15.8928H17.9131L18.4531 16.3038L18.2431 16.9758ZM4.71106 18.7308L5.25406 18.3138L5.79706 18.7308L5.58806 18.0598L6.12806 17.6488H5.46006L5.25306 16.9748L5.05006 17.6488H4.38006L4.92106 18.0598L4.71106 18.7308ZM8.30606 18.7308L8.84906 18.3138L9.39206 18.7308L9.18206 18.0598L9.72206 17.6488H9.05006L8.84906 16.9748L8.64206 17.6488H7.97506L8.51606 18.0598L8.30606 18.7308ZM12.2711 18.7308L12.8131 18.3138L13.3561 18.7308L13.1461 18.0598L13.6871 17.6488H13.0201L12.8131 16.9748L12.6061 17.6488H11.9381L12.4791 18.0598L12.2711 18.7308ZM16.2051 18.7308L16.7491 18.3138L17.2931 18.7308L17.0801 18.0598L17.6221 17.6488H16.9551L16.7481 16.9748L16.5431 17.6488H15.8751L16.4161 18.0598L16.2051 18.7308ZM20.1601 18.7308L20.6991 18.3138L21.2421 18.7308L21.0301 18.0598L21.5721 17.6488H20.9061L20.6981 16.9748L20.4931 17.6488H19.8251L20.3661 18.0598L20.1601 18.7308ZM22.3871 16.9758L22.9301 16.5578L23.4741 16.9758L23.2631 16.3038L23.8031 15.8928H23.1401L22.9291 15.2178L22.7231 15.8928H22.0501L22.5971 16.3038L22.3871 16.9758ZM2.74506 31.0198L3.28906 30.6068L3.83206 31.0198L3.62206 30.3538L4.16206 29.9418L3.49506 29.9438L3.28706 29.2698L3.08306 29.9438L2.41406 29.9418L2.95506 30.3538L2.74506 31.0198ZM6.34006 31.0198L6.88306 30.6068L7.42706 31.0198L7.21606 30.3538L7.75606 29.9418L7.09006 29.9438L6.88206 29.2698L6.67706 29.9438L6.01006 29.9418L6.55006 30.3538L6.34006 31.0198ZM10.3051 31.0198L10.8481 30.6068L11.3921 31.0198L11.1811 30.3538L11.7211 29.9418L11.0501 29.9438L10.8471 29.2698L10.6411 29.9438L9.97406 29.9418L10.5151 30.3538L10.3051 31.0198ZM14.2411 31.0198L14.7841 30.6068L15.3271 31.0198L15.1201 30.3538L15.6571 29.9418L14.9891 29.9438L14.7831 29.2698L14.5771 29.9438L13.9101 29.9418L14.4501 30.3538L14.2411 31.0198ZM18.1901 31.0198L18.7341 30.6068L19.2781 31.0198L19.0701 30.3538L19.6071 29.9418L18.9401 29.9438L18.7331 29.2698L18.5281 29.9438L17.8601 29.9418L18.4001 30.3538L18.1901 31.0198ZM22.3341 31.0198L22.8771 30.6068L23.4211 31.0198L23.2101 30.3538L23.7511 29.9418L23.0801 29.9438L22.8761 29.2698L22.6701 29.9438L22.0001 29.9418L22.5441 30.3538L22.3341 31.0198ZM2.79806 20.4878L3.34206 20.0698L3.88506 20.4878L3.67406 19.8158L4.21506 19.4048L3.54706 19.4068L3.34006 18.7308L3.13406 19.4068L2.46706 19.4048L3.01006 19.8158L2.79806 20.4878ZM6.39206 20.4878L6.93606 20.0698L7.47906 20.4878L7.26906 19.8158L7.80906 19.4048L7.14206 19.4068L6.93506 18.7308L6.72906 19.4068L6.06006 19.4048L6.60306 19.8158L6.39206 20.4878ZM10.3571 20.4878L10.9001 20.0698L11.4441 20.4878L11.2331 19.8158L11.7731 19.4048L11.1101 19.4068L10.9001 18.7308L10.6931 19.4068L10.0301 19.4048L10.5671 19.8158L10.3571 20.4878ZM14.2931 20.4878L14.8361 20.0698L15.3801 20.4878L15.1701 19.8158L15.7101 19.4048L15.0401 19.4068L14.8361 18.7308L14.6301 19.4068L13.9621 19.4048L14.5041 19.8158L14.2931 20.4878ZM18.2431 20.4878L18.7871 20.0698L19.3301 20.4878L19.1201 19.8158L19.6611 19.4048L18.9921 19.4068L18.7861 18.7308L18.5801 19.4068L17.9131 19.4048L18.4531 19.8158L18.2431 20.4878ZM4.71106 22.2438L5.25406 21.8268L5.79706 22.2438L5.58806 21.5728L6.12806 21.1598H5.46006L5.25306 20.4878L5.05006 21.1598H4.38006L4.92106 21.5728L4.71106 22.2438ZM8.30606 22.2438L8.84906 21.8268L9.39206 22.2438L9.18206 21.5728L9.72206 21.1598H9.05006L8.84906 20.4878L8.64206 21.1598H7.97506L8.51606 21.5728L8.30606 22.2438ZM12.2711 22.2438L12.8131 21.8268L13.3561 22.2438L13.1461 21.5728L13.6871 21.1598H13.0201L12.8131 20.4878L12.6061 21.1598H11.9381L12.4791 21.5728L12.2711 22.2438ZM16.2051 22.2438L16.7491 21.8268L17.2931 22.2438L17.0801 21.5728L17.6221 21.1598H16.9551L16.7481 20.4878L16.5431 21.1598H15.8751L16.4161 21.5728L16.2051 22.2438ZM20.1601 22.2438L20.6991 21.8268L21.2421 22.2438L21.0301 21.5728L21.5721 21.1598H20.9061L20.6981 20.4878L20.4931 21.1598H19.8251L20.3661 21.5728L20.1601 22.2438ZM22.3871 20.4878L22.9301 20.0698L23.4741 20.4878L23.2631 19.8158L23.8031 19.4048L23.1401 19.4068L22.9291 18.7308L22.7231 19.4068L22.0501 19.4048L22.5971 19.8158L22.3871 20.4878ZM2.74506 23.9998L3.28906 23.5828L3.83206 23.9998L3.62106 23.3298L4.16206 22.9178L3.49406 22.9198L3.28706 22.2438L3.08306 22.9198L2.41406 22.9178L2.95506 23.3298L2.74506 23.9998ZM6.34006 23.9998L6.88306 23.5828L7.42706 23.9998L7.21606 23.3298L7.75606 22.9178L7.09006 22.9198L6.88206 22.2438L6.67706 22.9198L6.01006 22.9178L6.54906 23.3298L6.34006 23.9998ZM10.3051 23.9998L10.8481 23.5828L11.3911 23.9998L11.1811 23.3298L11.7211 22.9178L11.0501 22.9198L10.8471 22.2438L10.6411 22.9198L9.97406 22.9178L10.5151 23.3298L10.3051 23.9998ZM14.2411 23.9998L14.7831 23.5828L15.3271 23.9998L15.1201 23.3298L15.6571 22.9178L14.9891 22.9198L14.7831 22.2438L14.5771 22.9198L13.9101 22.9178L14.4501 23.3298L14.2411 23.9998ZM18.1901 23.9998L18.7341 23.5828L19.2771 23.9998L19.0701 23.3298L19.6071 22.9178L18.9391 22.9198L18.7331 22.2438L18.5281 22.9198L17.8601 22.9178L18.4001 23.3298L18.1901 23.9998ZM4.65806 25.7558L5.20106 25.3398L5.74406 25.7558L5.53506 25.0898L6.07406 24.6758H5.40606L5.20006 23.9998L4.99506 24.6758H4.32706L4.86806 25.0898L4.65806 25.7558ZM8.25306 25.7558L8.79606 25.3398L9.33906 25.7558L9.12906 25.0898L9.66906 24.6758H9.00006L8.79506 23.9998L8.58906 24.6758H7.92106L8.46306 25.0898L8.25306 25.7558ZM12.2191 25.7558L12.7601 25.3398L13.3041 25.7558L13.0901 25.0898L13.6341 24.6758H12.9671L12.7601 23.9998L12.5541 24.6758H11.8861L12.4271 25.0898L12.2191 25.7558ZM16.1501 25.7558L16.6961 25.3398L17.2401 25.7558L17.0301 25.0898L17.5691 24.6758H16.9021L16.6951 23.9998L16.4901 24.6758H15.8221L16.3631 25.0898L16.1501 25.7558ZM20.1001 25.7558L20.6461 25.3398L21.1901 25.7558L20.9791 25.0898L21.5211 24.6758H20.8541L20.6461 23.9998L20.4401 24.6758H19.7721L20.3131 25.0898L20.1001 25.7558ZM22.3341 23.9998L22.8771 23.5828L23.4201 23.9998L23.2101 23.3298L23.7511 22.9178L23.0801 22.9198L22.8761 22.2438L22.6701 22.9198L22.0001 22.9178L22.5441 23.3298L22.3341 23.9998ZM2.74506 27.5128L3.28906 27.0998L3.83206 27.5128L3.62106 26.8418L4.16206 26.4298L3.49406 26.4318L3.28706 25.7558L3.08306 26.4318L2.41406 26.4298L2.95506 26.8418L2.74506 27.5128ZM6.34006 27.5128L6.88306 27.0998L7.42706 27.5128L7.21606 26.8418L7.75606 26.4298L7.09006 26.4318L6.88206 25.7558L6.67706 26.4318L6.01006 26.4298L6.54906 26.8418L6.34006 27.5128ZM10.3051 27.5128L10.8481 27.0998L11.3911 27.5128L11.1811 26.8418L11.7211 26.4298L11.0501 26.4318L10.8471 25.7558L10.6411 26.4318L9.97406 26.4298L10.5151 26.8418L10.3051 27.5128ZM14.2411 27.5128L14.7831 27.0998L15.3271 27.5128L15.1201 26.8418L15.6571 26.4298L14.9891 26.4318L14.7831 25.7558L14.5771 26.4318L13.9101 26.4298L14.4501 26.8418L14.2411 27.5128ZM18.1901 27.5128L18.7341 27.0998L19.2771 27.5128L19.0701 26.8418L19.6071 26.4298L18.9391 26.4318L18.7331 25.7558L18.5281 26.4318L17.8601 26.4298L18.4001 26.8418L18.1901 27.5128ZM4.65806 29.2698L5.20106 28.8518L5.74406 29.2698L5.53506 28.5978L6.07406 28.1898H5.40606L5.20006 27.5128L4.99506 28.1898H4.32706L4.86806 28.5978L4.65806 29.2698ZM8.25306 29.2698L8.79606 28.8518L9.33906 29.2698L9.12906 28.5978L9.66906 28.1898H9.00006L8.79506 27.5128L8.58906 28.1898H7.92106L8.46306 28.5978L8.25306 29.2698ZM12.2191 29.2698L12.7601 28.8518L13.3041 29.2698L13.0901 28.5978L13.6341 28.1898H12.9671L12.7601 27.5128L12.5541 28.1898H11.8861L12.4271 28.5978L12.2191 29.2698ZM16.1501 29.2698L16.6961 28.8518L17.2401 29.2698L17.0301 28.5978L17.5691 28.1898H16.9021L16.6951 27.5128L16.4901 28.1898H15.8221L16.3631 28.5978L16.1501 29.2698ZM20.1001 29.2698L20.6461 28.8518L21.1901 29.2698L20.9791 28.5978L21.5211 28.1898H20.8541L20.6461 27.5128L20.4401 28.1898H19.7721L20.3131 28.5978L20.1001 29.2698ZM22.3341 27.5128L22.8771 27.0998L23.4201 27.5128L23.2101 26.8418L23.7511 26.4298L23.0801 26.4318L22.8761 25.7558L22.6701 26.4318L22.0001 26.4298L22.5441 26.8418L22.3341 27.5128Z" fill="white"/>
</svg>
