<svg width="36" height="36" viewBox="0 0 36 36" fill="none" xmlns="http://www.w3.org/2000/svg">
<g clip-path="url(#clip0_563_4348)">
<path d="M32 5H20.5V15.5H36V9C36 7.93913 35.5786 6.92172 34.8284 6.17157C34.0783 5.42143 33.0609 5 32 5Z" fill="#EEEEEE"/>
<path d="M20.5 5H15.5V15.5H0V20.5H15.5V31H20.5V20.5H36V15.5H20.5V5Z" fill="#E8112D"/>
<path d="M28.9151 9.58461C28.9458 8.96026 29.0197 8.33878 29.1361 7.72461C28.5483 7.79761 27.9538 7.79761 27.3661 7.72461C27.4831 8.33961 27.5561 8.96161 27.5871 9.58461C26.9627 9.55384 26.3412 9.48 25.7271 9.36361C25.8001 9.95135 25.8001 10.5459 25.7271 11.1336C26.3412 11.0172 26.9627 10.9433 27.5871 10.9126C27.5563 11.537 27.4824 12.1584 27.3661 12.7726C27.9538 12.6996 28.5483 12.6996 29.1361 12.7726C29.0196 12.1584 28.9458 11.537 28.9151 10.9126C29.5394 10.9434 30.1609 11.0172 30.7751 11.1336C30.702 10.5459 30.702 9.95135 30.7751 9.36361C30.1591 9.48161 29.5381 9.55461 28.9151 9.58461Z" fill="#E8112D"/>
<path d="M15.5 5H4C2.93913 5 1.92172 5.42143 1.17157 6.17157C0.421427 6.92172 0 7.93913 0 9L0 15.5H15.5V5Z" fill="#EEEEEE"/>
<path d="M8.41505 9.58461C8.44582 8.96026 8.51966 8.33878 8.63605 7.72461C8.04831 7.79761 7.45379 7.79761 6.86605 7.72461C6.98305 8.33961 7.05605 8.96161 7.08705 9.58461C6.4627 9.55384 5.84123 9.48 5.22705 9.36361C5.30005 9.95135 5.30005 10.5459 5.22705 11.1336C5.84122 11.0172 6.4627 10.9433 7.08705 10.9126C7.05628 11.537 6.98244 12.1584 6.86605 12.7726C7.45379 12.6996 8.04831 12.6996 8.63605 12.7726C8.5196 12.1584 8.44576 11.537 8.41505 10.9126C9.0394 10.9434 9.66088 11.0172 10.2751 11.1336C10.202 10.5459 10.202 9.95135 10.2751 9.36361C9.65905 9.48161 9.03805 9.55461 8.41505 9.58461Z" fill="#E8112D"/>
<path d="M36 27V20.5H20.5V31H32C33.0609 31 34.0783 30.5786 34.8284 29.8284C35.5786 29.0783 36 28.0609 36 27Z" fill="#EEEEEE"/>
<path d="M28.9151 26.4146C28.9461 27.0376 29.0191 27.6586 29.1361 28.2746C28.5483 28.2016 27.9538 28.2016 27.3661 28.2746C27.4831 27.6596 27.5561 27.0376 27.5871 26.4146C26.9627 26.4453 26.3412 26.5192 25.7271 26.6356C25.8001 26.0478 25.8001 25.4533 25.7271 24.8656C26.3421 24.9826 26.9641 25.0556 27.5871 25.0866C27.5563 24.4622 27.4824 23.8407 27.3661 23.2266C27.9538 23.2996 28.5483 23.2996 29.1361 23.2266C29.0196 23.8407 28.9458 24.4622 28.9151 25.0866C29.5394 25.0558 30.1609 24.982 30.7751 24.8656C30.702 25.4533 30.702 26.0478 30.7751 26.6356C30.161 26.5182 29.5395 26.4443 28.9151 26.4146Z" fill="#E8112D"/>
<path d="M15.5 20.5H0V27C0 28.0609 0.421427 29.0783 1.17157 29.8284C1.92172 30.5786 2.93913 31 4 31H15.5V20.5Z" fill="#EEEEEE"/>
<path d="M8.41505 26.4146C8.44605 27.0376 8.51905 27.6586 8.63605 28.2746C8.04831 28.2016 7.45379 28.2016 6.86605 28.2746C6.98305 27.6596 7.05605 27.0376 7.08705 26.4146C6.4627 26.4453 5.84123 26.5192 5.22705 26.6356C5.30005 26.0478 5.30005 25.4533 5.22705 24.8656C5.84205 24.9826 6.46405 25.0556 7.08705 25.0866C7.05628 24.4622 6.98244 23.8407 6.86605 23.2266C7.45379 23.2996 8.04831 23.2996 8.63605 23.2266C8.5196 23.8407 8.44576 24.4622 8.41505 25.0866C9.0394 25.0558 9.66088 24.982 10.2751 24.8656C10.202 25.4533 10.202 26.0478 10.2751 26.6356C9.66103 26.5182 9.03948 26.4443 8.41505 26.4146Z" fill="#E8112D"/>
</g>
<defs>
<clipPath id="clip0_563_4348">
<rect width="36" height="36" fill="white"/>
</clipPath>
</defs>
</svg>
